<svg id="Capa_1" enable-background="new 0 0 512 512" height="512" viewBox="0 0 512 512" width="512" xmlns="http://www.w3.org/2000/svg"><g id="XMLID_424_"><path id="XMLID_1452_" d="m195 376h122v120h-122z" fill="#c3dafd"/><path id="XMLID_1316_" d="m256 376h61v120h-61z" fill="#a1b8d8"/><g id="XMLID_1385_"><g><g id="XMLID_571_"><path d="m165 466h182v30h-182z" fill="#e4f3ff"/></g></g></g><g id="XMLID_1318_"><path id="XMLID_1319_" d="m256 466h91v30h-91z" fill="#c3dafd"/></g><path id="XMLID_1469_" d="m0 16h512v390h-512z" fill="#e4f3ff"/><path id="XMLID_1325_" d="m222.5 183.287-123.772 123.773 21.212 21.212 102.56-102.558 33.5 33.5v-42.427z" fill="#9fe04d"/><path id="XMLID_186_" d="m256 16h256v390h-256z" fill="#c3dafd"/><g id="XMLID_1381_"><g><path id="XMLID_575_" d="m0 306h332v30h-332z" fill="#c3dafd"/></g></g><g id="XMLID_3_"><g><path id="XMLID_219_" d="m256 306h76v30h-76z" fill="#a1b8d8"/></g></g><g id="XMLID_1380_"><g><path id="XMLID_583_" d="m362 306h30v30h-30z" fill="#a1b8d8"/></g></g><g id="XMLID_1378_"><g><path id="XMLID_579_" d="m422 306h30v30h-30z" fill="#a1b8d8"/></g></g><path d="m332 93v30h40.787l-105.287 105.287-11.5-11.5v42.427l11.5 11.5 124.5-124.501v36.787h30v-90z" fill="#72c976"/></g></svg>